<?xml version="1.0" standalone="no"?>
<!DOCTYPE svg PUBLIC "-//W3C//DTD SVG 20010904//EN"
 "http://www.w3.org/TR/2001/REC-SVG-20010904/DTD/svg10.dtd">
<svg version="1.0" xmlns="http://www.w3.org/2000/svg"
 width="640.000000pt" height="640.000000pt" viewBox="0 0 640.000000 640.000000"
 preserveAspectRatio="xMidYMid meet">

<g transform="translate(0.000000,640.000000) scale(0.100000,-0.100000)"
fill="#000000" stroke="none">
<path d="M1015 4390 l-29 -30 153 -157 c85 -87 210 -214 280 -282 392 -384
591 -583 591 -590 0 -5 -21 -30 -47 -56 -199 -193 -993 -990 -993 -995 0 -4
13 -19 30 -35 26 -25 31 -26 46 -14 64 52 1104 1091 1104 1102 0 6 -44 53 -97
105 -54 52 -300 293 -547 536 -246 242 -451 442 -455 444 -4 1 -20 -11 -36
-28z"/>
<path d="M2540 2240 l0 -50 1301 0 1300 0 -3 48 -3 47 -1297 3 -1298 2 0 -50z"/>
</g>
</svg>
